<svg width="348" height="192" viewBox="0 0 348 192" fill="none" xmlns="http://www.w3.org/2000/svg">
<path d="M20.21 76.8099C14.03 73.3499 9.18996 68.5199 5.69996 62.2999C2.19996 56.0499 0.459961 49.0199 0.459961 41.2199C0.459961 33.4199 2.18996 26.4099 5.64996 20.1699C9.10996 13.9299 13.94 9.08994 20.16 5.62994C26.3 2.16994 33.27 0.439941 41.07 0.439941C47.03 0.439941 52.5 1.39994 57.49 3.30994C62.47 5.21994 66.73 8.01994 70.26 11.6999C73.79 15.3799 76.38 19.8299 78.04 25.0499H70.2C67.88 19.3099 64.19 15.0199 59.11 12.1699C54.03 9.31994 48.02 7.88994 41.07 7.88994C34.82 7.88994 29.21 9.31994 24.24 12.1699C19.27 15.0199 15.39 18.9799 12.6 24.0299C9.80996 29.0799 8.40997 34.8199 8.40997 41.2199C8.40997 47.6199 9.80996 53.3499 12.6 58.4099C15.39 63.4699 19.28 67.4199 24.24 70.2699C29.2 73.1199 34.81 74.5499 41.07 74.5499C48.17 74.5499 54.3 72.9899 59.47 69.8599C64.64 66.7299 68.34 62.0999 70.59 55.9599H78.48C76.86 61.4799 74.28 66.1999 70.73 70.1099C67.18 74.0299 62.88 76.9899 57.82 78.9899C52.76 80.9899 47.18 81.9999 41.07 81.9999C33.35 81.9999 26.39 80.2699 20.21 76.8099V76.8099Z" fill="#646464"/>
<path d="M216.98 81.7799C211.32 81.7799 206.3 80.7499 201.94 78.6899C197.58 76.6299 194.16 73.7599 191.68 70.0799C189.2 66.3999 187.84 62.1699 187.62 57.3899H195.62C195.84 60.7399 196.9 63.6899 198.79 66.2499C200.68 68.8099 203.19 70.7899 206.32 72.2099C209.45 73.6299 212.94 74.3299 216.8 74.3299C220.66 74.3299 223.83 73.7099 226.84 72.4499C229.86 71.1999 232.25 69.4199 234.01 67.0999C235.77 64.7799 236.66 62.0799 236.66 58.9899C236.66 56.9299 236.18 54.9399 235.23 53.0299C234.86 52.2899 234.34 51.5999 233.66 50.9599C232.98 50.3199 232.16 49.6499 231.2 48.9499C230.65 48.5099 229.69 47.9799 228.33 47.3499L225.52 46.1899C225.11 46.0099 223.98 45.6799 222.1 45.1999C221.36 44.9799 220.47 44.7399 219.42 44.4799C218.37 44.2199 217.54 44.0199 216.91 43.8699L215.14 43.4799C209.4 42.1199 204.92 40.8299 201.7 39.6199C198.48 38.4099 195.8 36.6999 193.65 34.5199C191.5 32.3299 190.13 29.3999 189.54 25.7199C189.36 24.4299 189.26 23.2199 189.26 22.0799C189.26 17.7399 190.34 13.9599 192.49 10.7399C194.64 7.51993 197.74 5.03992 201.79 3.28992C205.84 1.53992 210.62 0.669922 216.14 0.669922C221.36 0.669922 225.93 1.58992 229.85 3.42992C233.77 5.26992 236.83 7.86993 239.04 11.2399C241.25 14.6099 242.44 18.5099 242.63 22.9599H234.91C234.69 19.9799 233.73 17.3499 232.04 15.0699C230.35 12.7899 228.1 11.0199 225.28 9.76993C222.47 8.51993 219.35 7.88992 215.93 7.88992C212.51 7.88992 209.21 8.43993 206.36 9.54993C203.51 10.6599 201.26 12.2399 199.6 14.3199C197.94 16.3999 197.12 18.8399 197.12 21.6299C197.12 24.1299 197.89 26.4299 199.44 28.5299C200.51 29.9999 202.53 31.4499 205.51 32.8899C206.39 33.2999 207.63 33.7499 209.23 34.2399C210.83 34.7399 212.31 35.1699 213.67 35.5399C215.51 35.9799 216.39 36.1799 216.32 36.1499C216.14 36.0799 216.74 36.2199 218.14 36.5899C223.99 38.0199 228.53 39.3299 231.77 40.5099C235.01 41.6899 237.75 43.3599 239.99 45.5299C242.23 47.6999 243.7 50.6299 244.4 54.2999C244.69 55.8799 244.84 57.4099 244.84 58.8799C244.84 63.5499 243.63 67.6399 241.23 71.1599C238.83 74.6799 235.52 77.3099 231.33 79.0799C227.17 80.8799 222.39 81.7799 216.98 81.7799V81.7799Z" fill="#646464"/>
<path d="M347.54 81.4198H255.07L301.31 1.33984L347.54 81.4198V81.4198ZM267.2 74.4198H335.42L301.31 15.3398L267.2 74.4198V74.4198Z" fill="#646464"/>
<path d="M133.65 1.12988L87.4102 81.2099H179.88L133.64 1.12988H133.65ZM151.49 46.0299H115.81L133.65 15.1299L151.49 46.0299ZM111.77 53.0299H155.53L167.76 74.2199H99.5401L111.77 53.0299V53.0299Z" fill="#646464"/>
<path d="M78.4601 167.4C78.4601 163.3 78.5601 158.9 78.6601 154.39C74.9601 151.98 71.8601 149.44 69.3601 146.97C68.9601 145.89 70.2601 144.62 71.2601 145.37L72.4601 146.51C73.8601 147.34 76.0601 148.43 78.7601 149.29C79.3601 133.66 80.5601 116.8 82.2601 104.31C68.2601 106.93 54.0601 113.46 46.2601 127.07C44.2601 131.27 43.3601 135.22 43.3601 138.92C43.3601 150.72 52.5601 159.05 64.6601 157.92C66.1601 157.74 67.9601 157.45 69.2601 156.88C70.1601 156.53 71.0601 157.09 70.0601 157.84C69.5601 158.17 66.4601 159.22 62.3601 159.44C56.4601 159.74 48.4601 158.36 43.5601 151.01C41.2601 147.53 40.0601 143.09 40.0601 138.29C40.0601 133.99 41.0601 129.34 43.1601 125.03C50.4601 110.65 68.8601 102.91 82.7601 100.99C83.1601 98.7702 83.4601 96.7502 83.8601 94.9302C84.6601 93.7902 88.3601 94.5002 88.0601 96.1102C87.7601 97.4302 87.4601 98.9402 87.2601 100.55C100.76 99.3502 119.76 102.78 127.16 115.6C129.26 119.29 130.26 122.94 130.26 126.44C130.26 140.54 114.36 152.26 94.5601 154.38C90.2601 154.6 86.2601 154.31 82.6601 153.49C92.7601 159.67 106.96 165.94 119.06 165.32C129.26 164.79 138.76 159.2 147.46 152.86C151.76 149.74 147.26 155.47 145.36 157.17C138.36 163.53 129.16 168.41 120.86 168.83C108.76 169.45 94.0601 163.81 82.5601 156.9C82.2601 163.22 82.1601 169.22 82.1601 174.82C82.1601 180.42 82.2601 185.62 82.5601 189.9L82.8601 190.38C82.8601 190.88 82.6601 191.19 82.0601 191.32C80.9601 191.28 80.2601 189.31 79.5601 188.45C78.7601 184.09 78.4601 176.51 78.4601 167.41V167.4ZM86.7601 103.67C85.0601 115.96 83.5601 133.44 82.7601 150.38C86.2601 151.2 90.3601 151.69 94.9601 151.35C113.06 148.72 126.96 137.5 126.96 125.4C126.96 122.2 125.96 118.95 123.86 115.76C116.86 105.92 104.66 102.45 92.0601 103.1C91.0601 103.15 90.0601 103.2 89.0601 103.35L86.7601 103.67V103.67Z" fill="#B0824C"/>
<path d="M145.66 152.24C145.66 148.64 146.36 144.8 147.56 142.94C147.66 142.44 148.66 142.28 149.86 142.52C150.96 142.86 151.56 143.63 151.46 144.14C150.96 144.67 149.96 149.82 149.76 153.63C149.66 156.13 149.66 160.14 153.26 159.65C161.56 158.52 170.06 129.68 170.86 125.84L171.16 124.22C161.56 125.51 152.76 126.67 143.66 128.64C141.76 129.04 139.66 126.55 141.36 126.06C149.16 124.26 157.06 122.95 171.76 121.09C172.96 113.93 173.26 113.31 174.46 107.25C174.46 105.65 178.46 106.54 178.16 108.66C177.36 111.1 176.76 114.63 176.16 120.56C184.46 119.53 195.16 118.28 204.26 117.81C209.96 117.52 215.06 117.45 218.66 118.07C219.56 118.42 220.56 119.37 220.96 119.95C221.06 120.75 220.56 121.17 219.76 121.11C215.26 120.54 209.56 120.53 203.66 120.84C193.96 121.34 183.46 122.68 175.86 123.67V124.27C175.06 134.91 174.16 150.46 174.16 164.66C174.16 174.66 174.66 184.04 175.96 190.37C176.36 192.65 172.76 191.24 172.06 189.27C170.76 183.54 170.36 173.46 170.36 163.66C170.36 153.86 170.76 143.84 171.06 139.62L171.26 137.61C169.36 144.11 163.66 160.3 156.36 161.88C153.86 162.41 149.36 161.84 147.46 159.84C146.26 158.6 145.66 155.53 145.66 152.23V152.24ZM148.86 136.17C149.06 135.86 149.76 133.82 149.96 133.31L150.16 131.8C150.16 131.2 151.26 130.94 152.26 131.29C153.56 131.52 154.36 132.28 154.16 132.79C154.16 133.19 154.16 133.89 153.86 134.51C153.66 135.02 152.86 137.26 152.56 137.78C152.26 138.2 151.06 138.26 150.16 137.8C148.96 137.46 148.36 136.59 148.86 136.17V136.17Z" fill="#B0824C"/>
<path d="M187.26 153.2C186.86 152.02 186.66 150.73 186.66 149.43C186.66 147.83 186.96 146.11 187.76 144.67C188.26 143.64 188.86 142.71 189.76 142.37C190.56 142.13 191.66 142.57 192.46 143.43C193.26 144.19 193.06 144.8 192.56 145.13C191.16 146.1 190.26 149.05 190.26 151.65C190.26 153.45 190.66 155.03 191.76 155.67C195.86 158.26 202.56 147.31 203.36 143.67C203.66 142.25 207.16 143.88 206.96 145.38C206.86 146.09 206.76 147.69 206.76 149.49C207.16 151.87 207.86 154.23 210.66 154.39C217.56 153.73 223.56 148.13 226.86 144.66C227.76 143.41 227.66 146.42 226.46 148.38C224.46 151.58 219.36 157.25 212.46 157.2C208.56 157.4 205.46 155.16 204.06 151.93C202.06 154.93 199.16 158.58 195.06 158.79C191.76 158.96 188.36 156.53 187.26 153.19V153.2Z" fill="#B0824C"/>
<path d="M222.56 150.28C222.56 148.08 223.66 145.82 226.16 143.99C228.86 142.05 232.26 140.98 235.76 140.8C238.56 140.66 241.36 141.11 243.86 142.08H243.96L245.66 139.69C246.26 138.56 249.66 140.58 248.96 141.82C248.46 143.35 247.56 145.19 247.36 147.1C247.26 148.81 247.76 150.78 249.56 151.19C254.66 151.93 263.26 146.38 266.86 142.2C268.56 140.41 270.06 142.84 264.56 148.62C262.06 151.25 255.16 154.8 250.96 154.02C247.66 153.39 245.16 151.62 243.86 148.09C241.06 150.73 234.46 156.17 229.16 156.45C227.86 156.52 226.66 156.28 225.56 155.64C223.56 154.24 222.56 152.39 222.56 150.29V150.28ZM242.16 144.17C241.16 143.92 239.76 143.79 238.26 143.87C233.26 144.13 226.66 146.37 225.56 151.02C225.26 152.24 225.86 153.31 227.36 153.33C232.16 152.48 238.66 148.05 242.16 144.17V144.17Z" fill="#B0824C"/>
<path d="M267.16 156.88C265.26 153.98 264.56 146.91 264.56 138.61C264.56 122.01 267.36 100.36 268.66 96.1004C268.76 95.5004 269.36 95.3604 270.36 95.7104C271.36 96.1604 272.16 96.9204 272.16 97.4204C271.56 99.3504 268.66 123.5 268.66 140.8C268.66 149.7 269.46 156.76 271.66 158.15C276.86 161.08 288.96 144.16 290.46 142.18C291.46 140.73 291.66 143.22 291.26 144.44C289.46 149.53 281.46 160.75 275.16 161.07C271.96 161.24 269.16 159.58 267.16 156.88V156.88Z" fill="#B0824C"/>
<path d="M290.76 151.66C291.66 151.81 292.76 151.86 294.06 151.79C297.26 151.63 301.26 150.92 303.86 150.18C301.36 149.01 297.56 147.3 295.56 146.31C292.96 144.94 290.16 144.09 289.76 141.11C288.96 135.85 299.86 132.09 304.96 131.13C306.56 130.85 308.56 132.64 307.76 133.69C304.06 135.18 294.96 137.35 293.86 140.01C293.26 141.44 295.56 142.32 297.56 143.42C301.36 145.32 304.36 146.67 306.36 148.17C308.56 149.96 306.66 152.85 304.06 153.69C302.26 154.28 299.66 154.72 297.06 154.85C294.56 154.98 292.16 154.8 290.66 154.28C289.46 153.74 288.56 151.29 290.76 151.67V151.66Z" fill="#B0824C"/>
</svg>
